SplineFontDB: 3.0
FontName: Untitled1
FullName: Untitled1
FamilyName: Untitled1
Weight: Regular
Copyright: Copyright (c) 2017, ウルヰ,,,
UComments: "2017-11-16: Created with FontForge (http://fontforge.org)"
Version: 001.000
ItalicAngle: 0
UnderlinePosition: -100
UnderlineWidth: 50
Ascent: 800
Descent: 200
InvalidEm: 0
LayerCount: 2
Layer: 0 0 "Back" 1
Layer: 1 0 "Fore" 0
XUID: [1021 881 2055310830 506785]
StyleMap: 0x0000
FSType: 0
OS2Version: 0
OS2_WeightWidthSlopeOnly: 0
OS2_UseTypoMetrics: 1
CreationTime: 1510834338
ModificationTime: 1511251146
OS2TypoAscent: 0
OS2TypoAOffset: 1
OS2TypoDescent: 0
OS2TypoDOffset: 1
OS2TypoLinegap: 90
OS2WinAscent: 0
OS2WinAOffset: 1
OS2WinDescent: 0
OS2WinDOffset: 1
HheadAscent: 0
HheadAOffset: 1
HheadDescent: 0
HheadDOffset: 1
DEI: 91125
Encoding: ISO8859-1
UnicodeInterp: none
NameList: AGL For New Fonts
DisplaySize: -48
AntiAlias: 1
FitToEm: 0
WinInfo: 0 38 14
BeginChars: 256 33

StartChar: zero
Encoding: 48 48 0
Width: 400
VWidth: 0
Flags: W
HStem: 24 21G<46 86> 397 41<86 354> 744 20G<46 86>
VStem: 46 40<24 397 438 764>
LayerCount: 2
Fore
SplineSet
46 24 m 25
 46 764 l 1
 86 764 l 25
 86 438 l 25
 354 438 l 25
 354 397 l 25
 86 397 l 1
 86 24 l 25
 46 24 l 25
EndSplineSet
Validated: 1
EndChar

StartChar: F
Encoding: 70 70 1
Width: 400
VWidth: 0
Flags: W
HStem: 24 21G<314 354> 397 41<46 314> 744 20G<314 354>
VStem: 314 40<24 397 438 764>
LayerCount: 2
Fore
SplineSet
354 24 m 29
 314 24 l 29
 314 397 l 5
 46 397 l 29
 46 438 l 29
 314 438 l 29
 314 764 l 29
 354 764 l 5
 354 24 l 29
EndSplineSet
Validated: 1
EndChar

StartChar: one
Encoding: 49 49 2
Width: 400
VWidth: 0
Flags: W
HStem: 23 41<168.53 354> 744 20G<46 86>
VStem: 46 40<121.452 764>
LayerCount: 2
Fore
SplineSet
46 158 m 0
 46 764 l 1
 86 764 l 17
 86 249 l 8
 88 198 80.2894154255 150.717172261 107 120 c 0
 147 74 252 61 354 64 c 9
 354 23 l 1
 247 22 173 32 112 68 c 0
 81.1283850838 86.219313721 49 121 46 158 c 0
EndSplineSet
Validated: 33
EndChar

StartChar: E
Encoding: 69 69 3
Width: 400
VWidth: 0
Flags: W
HStem: 23 41<46 231.47> 744 20G<314 354>
VStem: 314 40<121.452 764>
LayerCount: 2
Fore
SplineSet
354 158 m 4
 351 121 318.872070312 86.2197265625 288 68 c 4
 227 32 153 22 46 23 c 5
 46 64 l 21
 148 61 253 74 293 120 c 4
 319.7109375 150.716796875 312 198 314 249 c 20
 314 764 l 13
 354 764 l 5
 354 158 l 4
EndSplineSet
Validated: 33
EndChar

StartChar: seven
Encoding: 55 55 4
Width: 400
VWidth: 0
Flags: W
HStem: 23 21G<314 354> 723 41<46 231.47>
VStem: 314 40<23 665.548>
LayerCount: 2
Fore
SplineSet
354 629 m 4
 354 23 l 5
 314 23 l 21
 314 538 l 12
 312 589 319.7109375 636.283203125 293 667 c 4
 253 713 148 726 46 723 c 13
 46 764 l 5
 153 765 227 755 288 719 c 4
 318.872070312 700.780273438 351 666 354 629 c 4
EndSplineSet
Validated: 33
EndChar

StartChar: nine
Encoding: 57 57 5
Width: 400
VWidth: 0
Flags: W
HStem: 21 21G<324.5 371> 748 20G<330 357>
VStem: 21 39<213.075 599.709>
LayerCount: 2
Fore
SplineSet
21 553 m 3
 21 620 73.4580078125 652.817382812 133 681 c 0
 208.783203125 716.87109375 303 749 357 768 c 1
 357 730 l 1
 202 666 277.783203125 701.87109375 202 666 c 0
 142.458007812 637.81640625 60 619 60 552 c 3
 60 498.764648438 62 398.189453125 62 273 c 0
 62 210 110 167 173 134 c 0
 230.424804688 103.919921875 317 77 371 59 c 1
 371 21 l 1
 278 46 189.931640625 79.291015625 137 108 c 0
 78 140 21 199 21 262 c 3
 21 392.095703125 21 497.91796875 21 553 c 3
EndSplineSet
Validated: 1
EndChar

StartChar: two
Encoding: 50 50 6
Width: 400
VWidth: 0
Flags: W
HStem: 21 38<35 120.412> 744 20G<46 86>
VStem: 46 40<424.92 764>
LayerCount: 2
Fore
SplineSet
46 439 m 0
 46 764 l 1
 86 764 l 17
 86 471 l 0
 86 471 75.5051058984 432.054845448 130 411 c 0
 174 394 251 386 308 374 c 8
 331 369 351.965591276 352.001610259 351 331 c 0
 347 244 317 184 255 123 c 24
 188 57 135 32 35 21 c 1
 35 59 l 1
 123 67 172.803710938 95.203125 234 154 c 0
 285 203 292.004866673 236.013383352 316 302 c 0
 320 313 320 332 295 341 c 0
 232.235351562 363.595703125 163.088002718 364.322460807 116 377 c 0
 38 398 46 439 46 439 c 0
EndSplineSet
Validated: 33
EndChar

StartChar: four
Encoding: 52 52 7
Width: 400
VWidth: 0
Flags: W
HStem: 726 38<35 120.412>
VStem: 46 40<21 314>
LayerCount: 2
Fore
SplineSet
46 346 m 4
 46 346 38 387 116 408 c 4
 163.087890625 420.677734375 232.235351562 421.404296875 295 444 c 4
 320 453 320 472 316 483 c 4
 292.004882812 548.986328125 285 582 234 631 c 4
 172.803710938 689.796875 123 718 35 726 c 5
 35 764 l 5
 135 753 188 728 255 662 c 28
 317 601 347 541 351 454 c 4
 351.965820312 432.998046875 331 416 308 411 c 20
 251 399 174 391 130 374 c 4
 75.5048828125 352.9453125 86 314 86 314 c 4
 86 21 l 13
 46 21 l 5
 46 346 l 4
EndSplineSet
Validated: 33
EndChar

StartChar: D
Encoding: 68 68 8
Width: 400
VWidth: 0
Flags: W
HStem: 21 38<265.588 351> 744 20G<300 340>
VStem: 300 40<471 764>
LayerCount: 2
Fore
SplineSet
340 439 m 4
 340 439 348 398 270 377 c 4
 222.912109375 364.322265625 153.764648438 363.595703125 91 341 c 4
 66 332 66 313 70 302 c 4
 93.9951171875 236.013671875 101 203 152 154 c 4
 213.196289062 95.203125 263 67 351 59 c 5
 351 21 l 5
 251 32 198 57 131 123 c 28
 69 184 39 244 35 331 c 4
 34.0341796875 352.001953125 55 369 78 374 c 20
 135 386 212 394 256 411 c 4
 310.495117188 432.0546875 300 471 300 471 c 4
 300 764 l 13
 340 764 l 5
 340 439 l 4
EndSplineSet
Validated: 33
EndChar

StartChar: B
Encoding: 66 66 9
Width: 400
VWidth: 0
Flags: W
HStem: 21 21G<300 340> 726 38<265.588 351>
VStem: 300 40<21 360.08>
LayerCount: 2
Fore
SplineSet
340 346 m 4
 340 21 l 5
 300 21 l 21
 300 314 l 4
 300 314 310.495117188 352.9453125 256 374 c 4
 212 391 135 399 78 411 c 12
 55 416 34.0341796875 432.998046875 35 454 c 4
 39 541 69 601 131 662 c 28
 198 728 251 753 351 764 c 5
 351 726 l 5
 263 718 213.196289062 689.796875 152 631 c 4
 101 582 93.9951171875 548.986328125 70 483 c 4
 66 472 66 453 91 444 c 4
 153.764648438 421.404296875 222.912109375 420.677734375 270 408 c 4
 348 387 340 346 340 346 c 4
EndSplineSet
Validated: 33
EndChar

StartChar: three
Encoding: 51 51 10
Width: 400
VWidth: 0
Flags: W
HStem: 744 20G<49 89>
VStem: 49 40<432.021 764> 293 40<6 337.979>
LayerCount: 2
Fore
SplineSet
191.299804688 369.618164062 m 1
 164.4921875 374.58984375 142.377929688 375.783203125 123 381 c 0
 45 402 49 443 49 443 c 0
 49 764 l 1
 89 764 l 17
 89 475 l 0
 89 475 82.5048828125 436.0546875 137 415 c 0
 151.828125 409.270507812 169.404296875 406.564453125 191.640625 400.936523438 c 1
 216.5078125 397.41015625 239.622070312 394.216796875 259 389 c 0
 337 368 333 327 333 327 c 0
 333 6 l 1
 293 6 l 17
 293 295 l 0
 293 295 299.495117188 333.9453125 245 355 c 0
 230.171875 360.728515625 211.595703125 365.435546875 191.299804688 369.618164062 c 1
EndSplineSet
Validated: 33
EndChar

StartChar: C
Encoding: 67 67 11
Width: 400
VWidth: 0
Flags: W
HStem: 744 20G<293 333>
VStem: 49 40<6 295> 293 40<475 764>
LayerCount: 2
Fore
SplineSet
191.299804688 400.381835938 m 1
 211.595703125 404.564453125 230.171875 409.271484375 245 415 c 0
 299.495117188 436.0546875 293 475 293 475 c 0
 293 764 l 9
 333 764 l 1
 333 443 l 0
 333 443 337 402 259 381 c 0
 239.622070312 375.783203125 216.5078125 372.58984375 191.640625 369.063476562 c 1
 169.404296875 363.435546875 151.828125 360.729492188 137 355 c 0
 82.5048828125 333.9453125 89 295 89 295 c 0
 89 6 l 9
 49 6 l 1
 49 327 l 0
 49 327 45 368 123 389 c 0
 142.377929688 394.216796875 164.4921875 395.41015625 191.299804688 400.381835938 c 1
EndSplineSet
Validated: 33
EndChar

StartChar: eight
Encoding: 56 56 12
Width: 400
VWidth: 0
Flags: W
HStem: 23 21G<46 86> 723 41<168.53 354>
VStem: 46 40<23 665.548>
LayerCount: 2
Fore
SplineSet
46 629 m 4
 49 666 81.1279296875 700.780273438 112 719 c 4
 173 755 247 765 354 764 c 5
 354 723 l 21
 252 726 147 713 107 667 c 4
 80.2890625 636.283203125 88 589 86 538 c 20
 86 23 l 13
 46 23 l 5
 46 629 l 4
EndSplineSet
Validated: 33
EndChar

StartChar: five
Encoding: 53 53 13
Width: 400
VWidth: 0
Flags: W
HStem: 21 38<314.804 371> 748 20G<35 62>
VStem: 21 45<208.862 353.658> 328 43<523.863 612.9>
LayerCount: 2
Fore
SplineSet
137 108 m 0
 85.2214326805 144.984690942 21 199 21 262 c 3
 21 392.096118313 91.3505859375 402.104492188 159 439 c 0
 225.580078125 475.3125 328 511.764673383 328 565 c 3
 328 632 249.541992188 637.81640625 190 666 c 0
 114.216796875 701.87109375 190 666 35 730 c 1
 35 768 l 1
 89 749 183.216796875 716.87109375 259 681 c 0
 318.541992188 652.817382812 371 620 371 553 c 3
 371 497.918242584 280.580078125 463.313476562 214 427 c 0
 146.350585938 390.103515625 66 392.067207912 66 273 c 3
 66 210 114 179 173 138 c 0
 226.234751022 101.006359459 317 77 371 59 c 1
 371 21 l 1
 278 46 186 73 137 108 c 0
EndSplineSet
Validated: 1
EndChar

StartChar: A
Encoding: 65 65 14
Width: 400
VWidth: 0
Flags: W
HStem: 21 38<21 77.1961> 748 20G<330 357>
VStem: 21 43<523.862 612.9> 326 45<208.862 353.658>
LayerCount: 2
Fore
SplineSet
255 108 m 0
 206 73 114 46 21 21 c 1
 21 59 l 1
 75 77 165.765625 101.006835938 219 138 c 0
 278 179 326 210 326 273 c 3
 326 392.067382812 245.649414062 390.103515625 178 427 c 0
 111.419921875 463.313476562 21 497.91796875 21 553 c 3
 21 620 73.4580078125 652.817382812 133 681 c 0
 208.783203125 716.87109375 303 749 357 768 c 1
 357 730 l 1
 202 666 277.783203125 701.87109375 202 666 c 0
 142.458007812 637.81640625 64 632 64 565 c 3
 64 511.764648438 166.419921875 475.3125 233 439 c 0
 300.649414062 402.104492188 371 392.095703125 371 262 c 3
 371 199 306.778320312 144.984375 255 108 c 0
EndSplineSet
Validated: 524289
EndChar

StartChar: six
Encoding: 54 54 15
Width: 400
VWidth: 0
Flags: W
HStem: 748 20G<35 62>
VStem: 332 39<213.075 599.709>
LayerCount: 2
Fore
SplineSet
371 553 m 3
 371 497.918242584 371 392.095703125 371 262 c 3
 371 199 314 140 255 108 c 0
 202.0679744 79.2911047596 114 46 21 21 c 1
 21 59 l 1
 75 77 161.575203825 103.920344861 219 134 c 0
 282 167 330 210 330 273 c 0
 330 398.189793479 332 498.764648438 332 552 c 3
 332 619 249.541992188 637.81640625 190 666 c 0
 114.216839909 701.871184665 190 666 35 730 c 1
 35 768 l 1
 89 749 183.216796875 716.87109375 259 681 c 0
 318.541992188 652.817382812 371 620 371 553 c 3
EndSplineSet
Validated: 1
EndChar

StartChar: G
Encoding: 71 71 16
Width: 400
VWidth: 0
Flags: W
HStem: -184 21G<205.469 240> 24 21G<46 86> 397 41<86 354> 744 20G<46 86>
VStem: 46 40<24 54 94 397 438 764>
LayerCount: 2
Fore
SplineSet
58 94 m 5
 188 134 l 5
 249 -158 l 5
 210 -184 l 5
 152 72 l 5
 64 54 l 5
 58 94 l 5
46 24 m 25
 46 764 l 1
 86 764 l 25
 86 438 l 25
 354 438 l 25
 354 397 l 25
 86 397 l 1
 86 24 l 25
 46 24 l 25
EndSplineSet
Validated: 5
EndChar

StartChar: H
Encoding: 72 72 17
Width: 400
VWidth: 0
Flags: W
HStem: 23 41<242.523 354> 744 20G<46 86>
VStem: 46 40<121.452 764>
LayerCount: 2
Fore
SplineSet
182 50 m 1
 238 48 l 1
 282 -146 l 1
 243 -172 l 1
 182 50 l 1
46 158 m 0
 46 764 l 1
 86 764 l 17
 86 249 l 8
 88 198 80.2894154255 150.717172261 107 120 c 0
 147 74 252 61 354 64 c 9
 354 23 l 1
 247 22 173 32 112 68 c 0
 81.1283850838 86.219313721 49 121 46 158 c 0
EndSplineSet
Validated: 37
EndChar

StartChar: I
Encoding: 73 73 18
Width: 400
VWidth: 0
Flags: W
HStem: -184 21G<237.861 272.968> 21 38<34.9678 120.379> 744 20G<45.9678 85.9678>
VStem: 45.9678 40<471 764>
LayerCount: 2
Fore
SplineSet
170.967773438 98 m 1
 226.967773438 96 l 1
 281.967773438 -158 l 5
 242.967773438 -184 l 1
 170.967773438 98 l 1
45.9677734375 439 m 0
 45.9677734375 764 l 1
 85.9677734375 764 l 17
 85.9677734375 471 l 0
 85.9677734375 471 75.47265625 432.0546875 129.967773438 411 c 0
 173.967773438 394 250.967773438 386 307.967773438 374 c 8
 330.967773438 369 351.93359375 352.001953125 350.967773438 331 c 0
 346.967773438 244 316.967773438 184 254.967773438 123 c 24
 187.967773438 57 134.967773438 32 34.9677734375 21 c 1
 34.9677734375 59 l 1
 122.967773438 67 172.771484375 95.203125 233.967773438 154 c 0
 284.967773438 203 291.97265625 236.013671875 315.967773438 302 c 0
 319.967773438 313 319.967773438 332 294.967773438 341 c 0
 232.203125 363.595703125 163.055664062 364.322265625 115.967773438 377 c 0
 37.9677734375 398 45.9677734375 439 45.9677734375 439 c 0
EndSplineSet
Validated: 37
EndChar

StartChar: J
Encoding: 74 74 19
Width: 400
VWidth: 0
Flags: W
HStem: -183 21G<145 179.531> 744 20G<49 89>
VStem: 49 40<475 764> 293 40<6 55 95 295>
LayerCount: 2
Fore
SplineSet
327 95 m 5
 321 55 l 5
 233 73 l 5
 175 -183 l 5
 136 -157 l 5
 197 135 l 5
 327 95 l 5
191.299804688 369.618164062 m 1
 164.4921875 374.58984375 142.377929688 375.783203125 123 381 c 0
 45 402 49 443 49 443 c 0
 49 764 l 1
 89 764 l 17
 89 475 l 0
 89 475 82.5048828125 436.0546875 137 415 c 0
 151.828125 409.270507812 169.404296875 406.564453125 191.640625 400.936523438 c 1
 216.5078125 397.41015625 239.622070312 394.216796875 259 389 c 0
 337 368 333 327 333 327 c 0
 333 6 l 1
 293 6 l 17
 293 295 l 0
 293 295 299.495117188 333.9453125 245 355 c 0
 230.171875 360.728515625 211.595703125 365.435546875 191.299804688 369.618164062 c 1
EndSplineSet
Validated: 37
EndChar

StartChar: K
Encoding: 75 75 20
Width: 400
VWidth: 0
Flags: W
HStem: -184 21G<205.469 240> 726 38<35 120.412>
VStem: 46 40<21 54 94 314>
LayerCount: 2
Fore
SplineSet
58 94 m 5
 188 134 l 5
 249 -158 l 5
 210 -184 l 5
 152 72 l 5
 64 54 l 5
 58 94 l 5
46 346 m 0
 46 346 38 387 116 408 c 0
 163.087890625 420.677734375 232.235351562 421.404296875 295 444 c 0
 320 453 320 472 316 483 c 0
 292.004882812 548.986328125 285 582 234 631 c 0
 172.803710938 689.796875 123 718 35 726 c 1
 35 764 l 1
 135 753 188 728 255 662 c 24
 317 601 347 541 351 454 c 0
 351.965820312 432.998046875 331 416 308 411 c 16
 251 399 174 391 130 374 c 0
 75.5048828125 352.9453125 86 314 86 314 c 0
 86 21 l 9
 46 21 l 1
 46 346 l 0
EndSplineSet
Validated: 37
EndChar

StartChar: L
Encoding: 76 76 21
Width: 400
VWidth: 0
Flags: W
HStem: 21 38<314.804 371> 748 20G<35 62>
VStem: 21 45<208.862 353.658> 328 43<523.862 612.9>
LayerCount: 2
Fore
SplineSet
221 110 m 5
 149 -172 l 5
 110 -146 l 5
 165 108 l 5
 221 110 l 5
137 108 m 0
 85.2216796875 144.984375 21 199 21 262 c 3
 21 392.095703125 91.3505859375 402.104492188 159 439 c 0
 225.580078125 475.3125 328 511.764648438 328 565 c 3
 328 632 249.541992188 637.81640625 190 666 c 0
 114.216796875 701.87109375 190 666 35 730 c 1
 35 768 l 1
 89 749 183.216796875 716.87109375 259 681 c 0
 318.541992188 652.817382812 371 620 371 553 c 3
 371 497.91796875 280.580078125 463.313476562 214 427 c 0
 146.350585938 390.103515625 66 392.067382812 66 273 c 3
 66 210 114 179 173 138 c 0
 226.234375 101.006835938 317 77 371 59 c 1
 371 21 l 1
 278 46 186 73 137 108 c 0
EndSplineSet
Validated: 5
EndChar

StartChar: M
Encoding: 77 77 22
Width: 400
VWidth: 0
Flags: W
HStem: 748 20G<35 62>
VStem: 332 39<213.075 599.709>
LayerCount: 2
Fore
SplineSet
171 110 m 5
 227 108 l 5
 282 -146 l 5
 243 -172 l 5
 171 110 l 5
371 553 m 3
 371 497.918242584 371 392.095703125 371 262 c 3
 371 199 314 140 255 108 c 0
 202.0679744 79.2911047596 114 46 21 21 c 1
 21 59 l 1
 75 77 161.575203825 103.920344861 219 134 c 0
 282 167 330 210 330 273 c 0
 330 398.189793479 332 498.764648438 332 552 c 3
 332 619 249.541992188 637.81640625 190 666 c 0
 114.216839909 701.871184665 190 666 35 730 c 1
 35 768 l 1
 89 749 183.216796875 716.87109375 259 681 c 0
 318.541992188 652.817382812 371 620 371 553 c 3
EndSplineSet
Validated: 5
EndChar

StartChar: N
Encoding: 78 78 23
Width: 400
VWidth: 0
Flags: W
HStem: -183 21G<145 179.531> 23 21G<314 354> 723 41<46 231.47>
VStem: 314 40<23 55 95 665.548>
LayerCount: 2
Fore
SplineSet
327 95 m 5
 321 55 l 5
 233 73 l 5
 175 -183 l 5
 136 -157 l 5
 197 135 l 5
 327 95 l 5
354 629 m 0
 354 23 l 1
 314 23 l 17
 314 538 l 8
 312 589 319.7109375 636.283203125 293 667 c 0
 253 713 148 726 46 723 c 9
 46 764 l 1
 153 765 227 755 288 719 c 0
 318.872070312 700.780273438 351 666 354 629 c 0
EndSplineSet
Validated: 37
EndChar

StartChar: O
Encoding: 79 79 24
Width: 400
VWidth: 0
Flags: W
HStem: -183 21G<220.469 255> 23 21G<46 86> 723 41<168.53 354>
VStem: 46 40<23 55 95 665.548>
LayerCount: 2
Fore
SplineSet
73 95 m 5
 203 135 l 5
 264 -157 l 5
 225 -183 l 5
 167 73 l 5
 79 55 l 5
 73 95 l 5
46 629 m 0
 49 666 81.1279296875 700.780273438 112 719 c 0
 173 755 247 765 354 764 c 1
 354 723 l 17
 252 726 147 713 107 667 c 0
 80.2890625 636.283203125 88 589 86 538 c 16
 86 23 l 9
 46 23 l 1
 46 629 l 0
EndSplineSet
Validated: 37
EndChar

StartChar: P
Encoding: 80 80 25
Width: 400
VWidth: 0
Flags: W
HStem: 748 20G<330 357>
VStem: 21 39<213.075 599.709>
LayerCount: 2
Fore
SplineSet
221 110 m 5
 149 -172 l 5
 110 -146 l 5
 165 108 l 5
 221 110 l 5
21 553 m 3
 21 620 73.4580078125 652.817382812 133 681 c 0
 208.783203125 716.87109375 303 749 357 768 c 1
 357 730 l 1
 202 666 277.783203125 701.87109375 202 666 c 0
 142.458007812 637.81640625 60 619 60 552 c 3
 60 498.764648438 62 398.189453125 62 273 c 0
 62 210 110 167 173 134 c 0
 230.424804688 103.919921875 317 77 371 59 c 1
 371 21 l 1
 278 46 189.931640625 79.291015625 137 108 c 0
 78 140 21 199 21 262 c 3
 21 392.095703125 21 497.91796875 21 553 c 3
EndSplineSet
Validated: 5
EndChar

StartChar: Q
Encoding: 81 81 26
Width: 400
VWidth: 0
Flags: W
HStem: 21 38<21 77.1961> 748 20G<330 357>
VStem: 21 43<523.862 612.9> 326 45<208.862 353.658>
LayerCount: 2
Fore
SplineSet
171 110 m 5
 227 108 l 5
 282 -146 l 5
 243 -172 l 5
 171 110 l 5
255 108 m 0
 206 73 114 46 21 21 c 1
 21 59 l 1
 75 77 165.765625 101.006835938 219 138 c 0
 278 179 326 210 326 273 c 3
 326 392.067382812 245.649414062 390.103515625 178 427 c 0
 111.419921875 463.313476562 21 497.91796875 21 553 c 3
 21 620 73.4580078125 652.817382812 133 681 c 0
 208.783203125 716.87109375 303 749 357 768 c 1
 357 730 l 1
 202 666 277.783203125 701.87109375 202 666 c 0
 142.458007812 637.81640625 64 632 64 565 c 3
 64 511.764648438 166.419921875 475.3125 233 439 c 0
 300.649414062 402.104492188 371 392.095703125 371 262 c 3
 371 199 306.778320312 144.984375 255 108 c 0
EndSplineSet
Validated: 5
EndChar

StartChar: R
Encoding: 82 82 27
Width: 400
VWidth: 0
Flags: W
HStem: 21 21G<300 340> 726 38<265.588 351>
VStem: 300 40<21 360.08>
LayerCount: 2
Fore
SplineSet
340 346 m 4
 340 21 l 5
 300 21 l 21
 300 314 l 4
 300 314 310.495117188 352.9453125 256 374 c 4
 212 391 135 399 78 411 c 12
 55 416 34.0341796875 432.998046875 35 454 c 4
 39 541 69 601 131 662 c 28
 198 728 251 753 351 764 c 5
 351 726 l 5
 263 718 213.196289062 689.796875 152 631 c 4
 101 582 93.9951171875 548.986328125 70 483 c 4
 66 472 66 453 91 444 c 4
 153.764648438 421.404296875 222.912109375 420.677734375 270 408 c 4
 348 387 340 346 340 346 c 4
EndSplineSet
Validated: 33
EndChar

StartChar: S
Encoding: 83 83 28
Width: 400
VWidth: 0
Flags: W
HStem: -183 21G<202.469 237> 744 20G<293 333>
VStem: 49 40<6 55 95 295> 293 40<475 764>
LayerCount: 2
Fore
SplineSet
55 95 m 5
 185 135 l 5
 246 -157 l 5
 207 -183 l 5
 149 73 l 5
 61 55 l 5
 55 95 l 5
190.700195312 369.618164062 m 1
 170.404296875 365.435546875 151.828125 360.728515625 137 355 c 0
 82.5048828125 333.9453125 89 295 89 295 c 0
 89 6 l 9
 49 6 l 1
 49 327 l 0
 49 327 45 368 123 389 c 0
 142.377929688 394.216796875 165.4921875 397.41015625 190.359375 400.936523438 c 1
 212.595703125 406.564453125 230.171875 409.270507812 245 415 c 0
 299.495117188 436.0546875 293 475 293 475 c 0
 293 764 l 9
 333 764 l 1
 333 443 l 0
 333 443 337 402 259 381 c 0
 239.622070312 375.783203125 217.5078125 374.58984375 190.700195312 369.618164062 c 1
EndSplineSet
Validated: 37
EndChar

StartChar: T
Encoding: 84 84 29
Width: 400
VWidth: 0
Flags: W
HStem: -184 21G<113 148.106> 21 38<265.588 351> 744 20G<300 340>
VStem: 300 40<471 764>
LayerCount: 2
Fore
SplineSet
215 98 m 1
 143 -184 l 1
 104 -158 l 5
 159 96 l 1
 215 98 l 1
340 439 m 0
 340 439 348 398 270 377 c 0
 222.912109375 364.322265625 153.764648438 363.595703125 91 341 c 0
 66 332 66 313 70 302 c 0
 93.9951171875 236.013671875 101 203 152 154 c 0
 213.196289062 95.203125 263 67 351 59 c 1
 351 21 l 1
 251 32 198 57 131 123 c 24
 69 184 39 244 35 331 c 0
 34.0341796875 352.001953125 55 369 78 374 c 16
 135 386 212 394 256 411 c 0
 310.495117188 432.0546875 300 471 300 471 c 0
 300 764 l 9
 340 764 l 1
 340 439 l 0
EndSplineSet
Validated: 37
EndChar

StartChar: U
Encoding: 85 85 30
Width: 400
VWidth: 0
Flags: W
HStem: 23 41<46 157.477> 744 20G<314 354>
VStem: 314 40<121.452 764>
LayerCount: 2
Fore
SplineSet
218 50 m 1
 157 -172 l 1
 118 -146 l 1
 162 48 l 1
 218 50 l 1
354 158 m 0
 351 121 318.872070312 86.2197265625 288 68 c 0
 227 32 153 22 46 23 c 1
 46 64 l 17
 148 61 253 74 293 120 c 0
 319.7109375 150.716796875 312 198 314 249 c 16
 314 764 l 9
 354 764 l 1
 354 158 l 0
EndSplineSet
Validated: 37
EndChar

StartChar: V
Encoding: 86 86 31
Width: 400
VWidth: 0
Flags: W
HStem: -184 21G<160 194.531> 24 21G<314 354> 397 41<46 314> 744 20G<314 354>
VStem: 314 40<24 54 94 397 438 764>
LayerCount: 2
Fore
SplineSet
342 94 m 5
 336 54 l 5
 248 72 l 5
 190 -184 l 5
 151 -158 l 5
 212 134 l 5
 342 94 l 5
354 24 m 25
 314 24 l 25
 314 397 l 1
 46 397 l 25
 46 438 l 25
 314 438 l 25
 314 764 l 25
 354 764 l 1
 354 24 l 25
EndSplineSet
Validated: 5
EndChar

StartChar: comma
Encoding: 44 44 32
Width: 400
VWidth: 0
Flags: W
HStem: 273 298
VStem: 51 298
LayerCount: 2
Fore
SplineSet
200 530.620117188 m 5
 91.3798828125 422 l 1
 200 313.379882812 l 1
 308.620117188 422 l 1
 200 530.620117188 l 5
200 571 m 1
 349 422 l 1
 200 273 l 1
 51 422 l 1
 200 571 l 1
EndSplineSet
Validated: 1
EndChar
